<svg width="32" height="32" viewBox="0 0 32 32" fill="none" xmlns="http://www.w3.org/2000/svg">
  <!-- Background circle with gradient -->
  <defs>
    <linearGradient id="grad1" x1="0%" y1="0%" x2="100%" y2="100%">
      <stop offset="0%" style="stop-color:#4F46E5;stop-opacity:1" />
      <stop offset="100%" style="stop-color:#7C3AED;stop-opacity:1" />
    </linearGradient>
  </defs>
  
  <!-- Circle background -->
  <circle cx="16" cy="16" r="15" fill="url(#grad1)"/>
  
  <!-- Apple/nutrition icon -->
  <path d="M16 8C16 8 14 6 12 6C10 6 8 8 8 11C8 14 10 18 12 20C13 21 14 22 16 22C18 22 19 21 20 20C22 18 24 14 24 11C24 8 22 6 20 6C18 6 16 8 16 8Z" fill="white"/>
  
  <!-- Leaf -->
  <path d="M16 6C16 6 17 5 18 5C19 5 20 6 20 7C20 8 19 9 18 9C17 9 16 8 16 6Z" fill="#86EFAC"/>
  
  <!-- Heart shape for fitness -->
  <circle cx="13" cy="13" r="1.5" fill="#4F46E5"/>
  <circle cx="19" cy="13" r="1.5" fill="#4F46E5"/>
</svg>
